<svg xmlns="http://www.w3.org/2000/svg" width="382" height="216" viewBox="0 0 382 216" xmlns:xlink="http://www.w3.org/1999/xlink">
  <defs>
    <rect id="a" width="382" height="173" y="23" rx="8"/>
    <rect id="b" width="254" height="216" x="64" rx="8"/>
    <path id="c" d="M72 0h238c4.42 0 8 3.58 8 8v18H64V8c0-4.42 3.58-8 8-8z"/>
  </defs>
  <g fill="none" fill-rule="evenodd">
    <use fill="#FFF" xlink:href="#a"/>
    <rect width="379" height="170" x="1.5" y="24.5" stroke="#000" stroke-opacity=".12" stroke-width="3" rx="8"/>
    <g transform="translate(329 35)">
      <rect width="37" height="41" x="1.5" y="106.5" stroke="#E0E0E0" stroke-width="3" rx="4"/>
      <rect width="37" height="94" x="1.5" y="1.5" stroke="#E0E0E0" stroke-width="3" rx="4"/>
      <path fill="#000" fill-opacity=".04" d="M7 29h26v61H7z"/>
      <path fill="#E0E0E0" d="M7 7h26v3H7zm0 6h20v3H7zm0 6h11v3H7z"/>
      <g fill="#E0E0E0" transform="translate(12 118)">
        <rect width="3" height="18" x="7" rx="1.5"/>
        <rect width="3" height="17" x="7" y="-7" transform="rotate(90 8.5 1.5)" rx="1.5"/>
      </g>
    </g>
    <use fill="#FFF" xlink:href="#b"/>
    <rect width="251" height="213" x="65.5" y="1.5" stroke="#E0E0E0" stroke-width="3" rx="8"/>
    <use fill="#F5F5F5" xlink:href="#c"/>
    <path stroke="#E0E0E0" stroke-width="3" d="M65.5 24.5h251V8c0-3.6-2.9-6.5-6.5-6.5H72c-3.6 0-6.5 2.9-6.5 6.5v16.5z"/>
    <circle cx="82.5" cy="13.5" r="2.5" fill="#E0E0E0"/>
    <circle cx="91.5" cy="13.5" r="2.5" fill="#E0E0E0"/>
    <circle cx="100.5" cy="13.5" r="2.5" fill="#E0E0E0"/>
    <path fill="#E0E0E0" d="M17 35h32c2.2 0 4 1.8 4 4v19.67c0 .52-.2 1-.56 1.38L38.7 74.38c-.38.4-.9.62-1.45.62H17c-2.2 0-4-1.8-4-4V39c0-2.2 1.8-4 4-4z"/>
    <path fill="#FFF" d="M16 38v34h19.13V61.12c0-2.2 1.8-4 4-4H50V38H16z"/>
    <g transform="translate(13 83)">
      <rect width="37" height="37" x="1.5" y="1.5" stroke="#E0E0E0" stroke-width="3" rx="4"/>
      <path fill="#E0E0E0" d="M13 23v10H7V23m16-6v16h-6V17m16-8v24h-6V9"/>
    </g>
    <g transform="translate(13 131)">
      <rect width="37" height="50" x="1.5" y="1.5" stroke="#E0E0E0" stroke-width="3" rx="4"/>
      <path fill="#000" fill-opacity=".04" d="M7 7h26v39H7z"/>
    </g>
  </g>
</svg>
